<svg width="16" height="16" viewBox="0 0 16 16" fill="none" xmlns="http://www.w3.org/2000/svg">
<path d="M13.0203 13.0213L10.4452 10.4462M10.4452 10.4462C10.8857 10.0057 11.2351 9.48283 11.4735 8.90733C11.7119 8.33183 11.8346 7.71501 11.8346 7.09209C11.8346 6.46917 11.7119 5.85235 11.4735 5.27685C11.2351 4.70134 10.8857 4.17843 10.4452 3.73796C10.0048 3.29749 9.48186 2.94809 8.90635 2.70971C8.33085 2.47133 7.71403 2.34863 7.09111 2.34863C6.46819 2.34863 5.85137 2.47133 5.27587 2.70971C4.70037 2.94809 4.17745 3.29749 3.73698 3.73796C2.84741 4.62753 2.34766 5.83405 2.34766 7.09209C2.34766 8.35013 2.84741 9.55665 3.73698 10.4462C4.62655 11.3358 5.83307 11.8355 7.09111 11.8355C8.34915 11.8355 9.55567 11.3358 10.4452 10.4462Z" stroke="white" stroke-width="1.55341" stroke-linecap="round" stroke-linejoin="round"/>
</svg>
