<svg width="32" height="32" viewBox="0 0 32 32" fill="none" xmlns="http://www.w3.org/2000/svg">
<path d="M26.0425 26.0425L20.8924 20.8924M20.8924 20.8924C21.7734 20.0115 22.4722 18.9657 22.9489 17.8147C23.4257 16.6637 23.6711 15.43 23.6711 14.1842C23.6711 12.9383 23.4257 11.7047 22.9489 10.5537C22.4722 9.40269 21.7734 8.35686 20.8924 7.47592C20.0115 6.59498 18.9657 5.89618 17.8147 5.41941C16.6637 4.94265 15.43 4.69727 14.1842 4.69727C12.9383 4.69727 11.7047 4.94265 10.5537 5.41941C9.40269 5.89618 8.35686 6.59498 7.47592 7.47592C5.69678 9.25506 4.69727 11.6681 4.69727 14.1842C4.69727 16.7003 5.69678 19.1133 7.47592 20.8924C9.25506 22.6716 11.6681 23.6711 14.1842 23.6711C16.7003 23.6711 19.1133 22.6716 20.8924 20.8924Z" stroke="#FF0000" stroke-width="4" stroke-linecap="round" stroke-linejoin="round"/>
</svg>
